<svg xmlns="http://www.w3.org/2000/svg" width="1177" height="1337" fill="none"><path fill="#020608" d="M445.805 191.999c27.247-39.126 69.361-60.371 115.351-68.628a254.16 254.16 0 0 1 189.389 40.998c29.689 20.776 55.051 49.99 70.587 82.629 5.49 11.522 10.19 21.162 12.456 34.026l.15.872c13.526 4.173 22.065 8.337 28.971 21.532a47.45 47.45 0 0 1 2.938 36.998 47.35 47.35 0 0 1-24.004 27.395c-2.526 1.223-5.392 2.408-7.983 3.488-2.918 23.364-7.488 44.151-13.004 67.137 22.221 18.967 28.534 41.917 23.083 70.693-1.09 5.755-2.657 11.598-3.551 17.372a356.8 356.8 0 0 1 28.09 88.84 393 393 0 0 1 6.038 56.087c.463 15.145-.17 31.127 2.011 47.558 5.62 42.363 14.361 72.197 26.033 114.625 12.11 41.97 33.633 103.225 57.094 138.341 8.611 12.887 94.106.385 104.796 28.108 7.16 18.53-10.56 34.72-19.57 43.75 25.16 9.46 58.55 23.33 46.02 56.66-1.1 2.94-2.64 5.74-4.69 8.13 15.45 3.23 64.05 25.59 47.81 47.42-16.47 22.12-62.8 34.53-88.99 40.7-70.877 16.72-145.016 24.74-217.588 29.92a2740 2740 0 0 1-280.502 4.93 2058 2058 0 0 1-235.753-19.79c-47.185-7.07-109.702-18.24-151.724-41.49-7.045-4.02-17.32-12.44-18.754-20.85-3.536-20.72 36.04-37.57 51.182-40.32-6.527-3.33-12.254-8.09-14.469-15.32-5.445-17.77 10.768-29.59 21.477-40.29 12.566-12.55 21.611-27.42 28.256-43.71 16.766-43.195 23.559-92.059 25.164-138.103.672-19.278.001-38.204-.094-57.371-.215-27.621.343-55.249 1.674-82.844.972-18.717 2.74-42.454 6.852-60.747a184.9 184.9 0 0 1 18.978-50.058c24.142-42.874 50.536-53.282 84.438-85.955 16.072-15.49 31.198-36.831 46.796-53.29 3.492-3.684 17.21-14.017 17.587-16.555 1.299-8.752.838-25.861.735-34.845-23.115-26.187-39.571-47.924-44.267-84.196-4.339-33.522 4.493-59.686 24.093-86.724 1.762-2.412 3.566-5.556 4.834-8.336-14.51-20.995-8.83-52.001 18.774-58.814 4.415-1.089 8.781-.452 13.286.027"/><path fill="#c8c7c7" d="m299.328 1101.99 14.176.74c-3.638 7.23-7.079 15.67-4.161 23.64 6.672 18.23 28.696 23.92 45.593 22.46 12.749 8.87 30.568 4.79 44.926 2.22 21.335-3.82 86.507-15.91 101.516-25.76 8.141-5.34 13.508-13.63 19.824-20.83 38.435 13.35 85.167 18.47 125.764 20.06-5.527 9.48-10.154 19.55-7.427 30.86a26.16 26.16 0 0 0 12.495 16.61c5.735 3.32 10.161 3.82 16.604 4.3 12.677 12.84 30.688 13.65 46.447 6.01 29.839 7.72 52.824-16.61 66.383-40.23 68.851 16.38 143.629 15.06 213.1 3.31 28.492-4.82 72.382-13.73 91.442-36.77 15.45 3.24 64.05 25.59 47.81 47.42-16.47 22.12-62.8 34.53-88.99 40.7-70.877 16.72-145.016 24.75-217.588 29.92a2740 2740 0 0 1-280.502 4.93 2058 2058 0 0 1-235.753-19.79c-47.185-7.07-109.702-18.24-151.724-41.49-7.045-4.02-17.32-12.44-18.754-20.85-3.536-20.72 36.04-37.57 51.182-40.32 18.822 5.93 34.648 9.81 54.531 10.14 22.973.38 36.669-.08 53.106-17.28"/><path fill="#f5edd2" d="M416.094 273.337c8.992-16.077 15.081-31.793 23.409-47.824 81.317-156.538 335.463-102.737 380.01 55.184q.48 1.713.921 3.438c-5.425 1.533-17.894 5.302-16.817 12.779 3.212 3.392 9.035-2.768 13.063-3.364 26.38-3.909 40.278 14.164 37.347 38.616-4.002 14.928-13.272 23.618-28.162 27.679-5.399 1.47-14.93-.041-16.829 6.472-1.456 4.995 8.336 5.518 10.738 5.621-5.842 29.023-9.883 58.285-20.387 86.207-5.405 14.36-14.844 23.602-25.962 33.615-28.566 24.564-58.118 38.717-92.619 53.227-33.875 12.326-75.453 24.659-107.654 38.231-14.317-12.494-33.578-22.306-53.045-20.895a51.18 51.18 0 0 0-34.974 17.882c-2.054 2.449-4.07 5.626-5.613 8.411-5.967-15.84-15.801-29.917-33.897-32.548-3.057-1.64-9.339-25.265-10.929-30.262-.709-3.896-.096-5.34 1.035-9.186 4.678-15.909 5.887-30.93 6.427-47.402-.024-9.587-.154-19.311.307-28.875 6.207 4.991 10.439 8.169 17.314 12.179 4.879 2.668 8.551 4.709 13.728 6.842-4.633-8.067-16.713-18.199-23.563-25.455-43.355-45.934-73.368-101.244-33.848-160.572"/><path fill="#bb7c3f" d="M416.094 273.337c8.992-16.077 15.081-31.793 23.409-47.824 81.317-156.538 335.463-102.737 380.01 55.184q.48 1.713.921 3.438c-5.425 1.533-17.894 5.302-16.817 12.779 3.212 3.392 9.035-2.768 13.063-3.364 26.38-3.909 40.278 14.164 37.347 38.616-4.002 14.928-13.272 23.618-28.162 27.679-5.399 1.47-14.93-.041-16.829 6.472-1.456 4.995 8.336 5.518 10.738 5.621-5.842 29.023-9.883 58.285-20.387 86.207-5.405 14.36-14.844 23.602-25.962 33.615-28.566 24.564-58.118 38.717-92.619 53.227.823-16.813 1.763-27.839 0-45.205l.157-.509.972-.013c3.238-2.97 11.921-8.401 16.079-11.559 8.747-6.639 33.293-30.533 35.349-40.124l-1.018-1.516c20.765-23.44 30.786-55.57 15.908-84.787a63.6 63.6 0 0 0-21.438-24.142c-32.842-21.98-51.453 2.182-73.074-6.453-9.694-3.872-16.306-13.156-23.105-20.614-15.662-17.176-32.051-31.551-54.574-38.858-21.388-6.939-46.538-9.21-67.307.835-7.695 3.721-14.619 8.807-22.26 12.588-24.413 12.081-28.365-9.37-47.022-15.089-8.795-2.696-15.669-.337-23.379 3.796"/><path fill="#99612e" d="M810.707 345.232c5.829-5.184.255-19.518 10.393-24.303 10.373-4.893 13.839.373 21.894 2.356-.045 3.355.843 7.385 1.6 10.703 4.498-2.173 4.458-2.235 9.433-1.822-4.002 14.928-13.272 23.618-28.162 27.679-5.399 1.47-14.93-.041-16.829 6.472-1.456 4.995 8.336 5.518 10.738 5.621-5.842 29.023-9.883 58.285-20.387 86.207-5.405 14.36-14.844 23.602-25.962 33.615-.071-4.776 4.028-14.518 5.334-19.835 8.538-34.772 12.403-70.481 19.688-105.443 1.423-6.826 13.683-13.251 12.26-21.25"/><path fill="#020608" d="M810.707 345.232c-25.361-33.232 29.722-48.407 32.287-21.947-8.055-1.983-11.522-7.249-21.895-2.356-10.138 4.785-4.563 19.118-10.392 24.303M660.909 271.791a35.8 35.8 0 0 1 12.416 1.567c9.733 3.04 18.383 10.504 23.05 19.526 2.252 4.352 5.719 13.932-.45 16.423-5.928-.527-8.904-8.967-15.883-14.463l-.783-.613c-26.249-15.629-33.575 2.754-45.105 1.958-3.435-2.742-.401-8.762 1.863-11.437 6.609-7.811 14.816-11.724 24.892-12.961M477.168 235.133c6.317-.473 11.266-.152 17.034 2.991a26.9 26.9 0 0 1 12.771 16.149c1.306 4.588 2.009 12.262-3.955 13.567-4.112-1.035-7.616-9.074-11.498-12.872-16.893-11.581-25.541 1.475-35.787 1.477-2.089-1.003-1.353-.232-2.221-2.452 1.031-9.804 14.987-16.876 23.656-18.86"/><path fill="#613c1a" d="M677.581 212.292c12.606-.564 25.805 4.586 32.307 16.347 2.004 3.637 5.046 9.871 3.806 13.96-1.645 1.073-.757.869-2.794.494-6.077-7.243-11.913-12.777-20.198-17.588-4.954-2.874-18.298-2.448-17.919-9.153 1.397-2.24 2.468-2.616 4.798-4.06M498.495 178.986c7.888-.475 18.386.251 22.118 8.722-1.036 7.885-13.738 2.146-20.231 2.578l-.876.063c-7.842.987-10.108 3.855-16.644 5.531-1.762-1.077-1.035-.331-1.859-2.643.583-6.973 11.395-12.742 17.492-14.251"/><path fill="#fcf8e9" d="M442.463 440.343c6.207 4.991 10.439 8.169 17.315 12.179.393 7.326.139 14.673-.757 21.955l-.111 3.857.946-2.381c.924.042 19.87 15.678 23.539 18.001 52.041 32.963 112.627 38.285 170.274 17.34 3.016-1.097 26.458-11.539 27.137-11.512 1.763 17.366.823 28.392 0 45.205-33.875 12.326-75.453 24.659-107.654 38.231-14.317-12.494-33.577-22.306-53.045-20.895a51.18 51.18 0 0 0-34.974 17.882c-2.054 2.449-4.07 5.626-5.613 8.411-5.967-15.84-15.801-29.917-33.897-32.548-3.057-1.64-9.339-25.265-10.929-30.262-.709-3.896-.096-5.34 1.035-9.186 4.678-15.909 5.887-30.93 6.427-47.402-.024-9.587-.154-19.311.307-28.875"/><path fill="#bb7c3f" d="M442.463 440.343c6.207 4.991 10.439 8.169 17.315 12.179.393 7.326.139 14.673-.757 21.955l-.111 3.857c-1.862 29.286-6.969 49.223-13.287 77.734-3.057-1.64-9.339-25.265-10.929-30.262-.709-3.896-.096-5.34 1.035-9.186 4.678-15.909 5.887-30.93 6.427-47.402-.024-9.587-.154-19.311.307-28.875"/><path fill="#99612e" d="M442.463 440.343c6.207 4.991 10.439 8.169 17.314 12.179.393 7.326.14 14.673-.756 21.955-4.74-2.258-10.685-9.234-13.663-13.632.545 1.833 1.432 4.556 1.752 6.375l.134.807-1.125.04c-.195-1.273-.259-1.886-.58-3.122-1.094.971-1.044.927-1.775 2.2l-.349-2.47 1.261.877-1.239-.102-.284-5.458c-.485 2.95.126 7.686-.997 9.226-.024-9.587-.154-19.311.307-28.875"/><path fill="#e1a662" d="M442.156 469.219c1.123-1.54.512-6.276.997-9.227l.284 5.459 1.239.101-1.261-.876.349 2.469c.731-1.273.681-1.229 1.775-2.2.321 1.236.385 1.85.58 3.122l1.125-.04c2.722 11.863-4.161 49.803-12.55 57.779-.709-3.895-.096-5.339 1.035-9.186 4.678-15.908 5.887-30.93 6.427-47.401"/><path fill="#99612e" d="m732.345 446.062 1.018 1.515c-2.056 9.592-26.602 33.485-35.349 40.125-4.158 3.158-12.841 8.588-16.079 11.559l-.972.012c-1.41-7.985-2.762-14.401-4.713-22.27 21.418-5.83 40.316-15.184 56.095-30.941"/><path fill="#020608" d="M524.831 273.737c16.27-2.225 37.031 3.004 50.829 11.937 30.403 19.684 6.599 40.821-16.684 49.619-7.716 2.916-13.183 4.127-21.595 5.448-1.578 6.27-3.422 16.077-.618 22.083 9.268 19.854 37.595 34.306 58.907 27.621 5.567-1.747 10.398-8.24 16.654-5.577.753 1.082 1.537 2.238.926 3.599-7.972 17.768-35.106 15.643-48.556 11.948-16.934-5.83-25.886-14.491-35.917-28.457-9.414 6.378-17.81 10.799-30.386 10.635-13.256-.174-31.531-10.742-32.129-25.69-.079-1.99 1.206-3.524 2.682-4.82 8.108.704 17.813 37.347 55.859 8.344-.841-8.404-.261-13.996 2.017-22.099-16.005-10.455-35.646-33.341-23.964-54.164 3.875-6.906 14.596-9.234 21.975-10.427"/><path fill="#363b3f" d="M529.608 280.921c5.955-.572 34.627 2.764 30.569 12.458-3.174 2.036-6.159 1.766-9.791 1.23-3.249-.954-5.7-1.516-9.012-2.05-6.207-1.002-22.083 1.116-24.441-6.115 1.698-4.554 8.502-4.887 12.675-5.523"/><path fill="#b2743a" d="M408.724 703.603c5.51-.353 9.369-.287 14.915-.105 6.321 1.215 9.695 2.018 15.527 4.864 9.606 4.681 14.465 10.876 25.432 12.025-.598 4.048-2.433 22.516-3.469 24.991a1004 1004 0 0 0 2.824 209.115c3.088 25.179 6.74 51.407 16.345 75.007 10.005 17.97 22.303 30.37 42.582 34.88 30.197 6.73 59.634 7.32 88.379 20.91 6.708 3.18 13.77 6.43 20.606 9.37 11.386 4.07 23.384 7.18 34.723 11.64-3.081 2.68-6.528 5.56-9.466 8.34-13.87-7.1-23.705-4.2-39.469-5.78-67.352-6.76-101.686-14.28-156.61-53.56l-1.029.38c-.341 2.16 1.572 4.79 2.995 6.59 11.987 15.14 29.14 26.58 46.05 35.3-5.096 5.54-11.398 14.29-17.992 17.78-11.169 5.92-103.13 24.74-117.355 25.41-2.355.11-5.547.4-7.451-1.21a4.32 4.32 0 0 1-1.494-2.66c-.192-1.32.241-2.88.78-4.06 5.032-7.48 22.115-16.99 22.638-20.59-7.305-6.56-27.109 9.5-32.223 15.42-1.78 2.83-2.766 6.01-3.932 9.16-5.385-.16-17.476-.63-20.093-6.13-.003-2.22.093-2.15 1.131-4 5.298-12.11 26.243-19.36 26.034-24.53-2.813-1.94-6.693-1.28-9.794-.56-7.652 2.81-10.422 4.51-16.784 9.53-4.27 3.36-7.698 10.99-10.193 11.67l-.737-1.08c-1.587-22.14 34.295-33.01 51.012-36.14 3.134-.85 4.416-1.28 7.541-.27 5.763 1.86 15.252 2.5 20.49 3.89 3.665.79 14.478 3.78 16.836.61-2.208-3.28-12.028-5.44-15.89-7.16-76.562-34.12-63.075-107.658-30.906-169.769a691 691 0 0 0 1.98 9.342c.78 3.506 2.702 12.744 5.67 14.63 2.472-1.527.677-11.294.451-14.401q-.755-11.79-1.235-23.581c-2.83-67.293 12.026-131.369 31.181-195.268"/><path fill="#fcf8e9" d="M423.639 703.498c6.321 1.214 9.695 2.017 15.527 4.864 9.607 4.68 14.465 10.876 25.432 12.025-.598 4.047-2.433 22.516-3.469 24.99a1004 1004 0 0 0 2.824 209.115c3.088 25.18 6.741 51.408 16.345 75.008l-1.405.26a113.53 113.53 0 0 1-44.632-38.004c-45.245-65.832-33.022-173.555-19.507-247.254 2.743-14.394 5.514-26.785 8.885-41.004"/><path fill="#ddd7c6" d="M423.639 703.498c6.321 1.214 9.695 2.017 15.527 4.864 9.607 4.68 14.465 10.876 25.432 12.025-.598 4.047-2.433 22.516-3.469 24.99l-.553-.894c-.525.45-2.552 2.154-3.252 2.03-10.08-1.828-20.403-3.603-30.683-2.709-4.4.385-7.479.901-11.887.698 2.743-14.394 5.514-26.785 8.885-41.004"/><path fill="#bb7c3f" d="M372.606 1085.58c3.134-.85 4.416-1.28 7.541-.27 5.763 1.86 15.252 2.5 20.49 3.89 9.723 11.55 40.779 7.85 41.846 19.58-2.527 5.03-16.709 9.92-22.38 12.1-16.251 6.25-37.257 13.21-54.556 11.95 5.032-7.48 22.115-16.99 22.638-20.59-7.305-6.56-27.109 9.49-32.223 15.42-1.78 2.83-2.766 6.01-3.932 9.16-5.385-.16-17.476-.63-20.093-6.13-.003-2.22.093-2.15 1.131-4 5.298-12.11 26.243-19.36 26.034-24.53-2.813-1.94-6.693-1.28-9.794-.56-7.652 2.81-10.422 4.51-16.784 9.53-4.27 3.36-7.698 10.99-10.193 11.67l-.737-1.08c-1.587-22.14 34.295-33.01 51.012-36.14"/><path fill="#dc9a55" d="M349.308 1101.6c-7.652 2.81-10.422 4.51-16.784 9.53-4.27 3.36-7.698 10.99-10.193 11.67l-.737-1.08c-1.587-22.14 34.295-33.01 51.012-36.14 2.685.87 3.73.99 6.553 1.05-8.822 3.25-17.081 6.94-26.294 9.16-.846.2-2.346 3.12-2.733 3.96-.282.62-.557 1.23-.824 1.85"/><path fill="#99612e" d="M352.03 1136.82c-5.385-.16-17.476-.63-20.093-6.13-.003-2.22.093-2.15 1.131-4 2.311.71 19.302.82 22.894.97-1.78 2.83-2.765 6.01-3.932 9.16"/><path fill="#fcf8e9" d="M703.184 917.62a1587 1587 0 0 0 131.207-48.159c15.053 43.622 37.94 91.063 58.739 132.289-37.21 17.15-89.284 37.56-128.178 50.42-13.16 4.63-26.386 9.1-39.664 13.4-4.08-7.16-11.711-26.17-15.374-34.8a2216 2216 0 0 1-39.86-103.285c6.293-1.495 9.949-2.507 16.144-4.649 2.859 14.63 18.461 65.551 28.058 75.187-1.502-10.439-5.823-25.186-8.448-35.762a1035 1035 0 0 1-9.387-42.428z"/><path fill="#e4dfd1" d="M703.184 917.621c.372 1.854.725 2.057 1.397 3.728 6.202 15.439 10.412 31.329 16.451 46.938a438.3 438.3 0 0 0 32.698 67.353c3.656 6.01 7.893 11.18 11.222 16.53-13.16 4.63-26.386 9.1-39.664 13.4-4.08-7.16-11.711-26.17-15.374-34.8a2215 2215 0 0 1-39.86-103.285c6.293-1.495 9.949-2.506 16.144-4.648 2.859 14.63 18.461 65.551 28.058 75.187-1.502-10.439-5.823-25.186-8.448-35.762a1035 1035 0 0 1-9.387-42.428z"/><path fill="#de361e" d="M472.379 811.203c39.302-7.743 86.198-21.067 124.481-32.792 4.609 11.412 10.948 33.203 15.262 45.764a2701 2701 0 0 0 33.464 91.984 2865 2865 0 0 1-78.041 22.203c-1.92-5.654-12.001-40.293-12.258-45.098-2.113 4.165 3.636 40.24 5.186 47.023-5.902 1.489-13.308 3.173-19.04 4.897-19.44 4.909-42.652 10.954-62.192 14.16-4.574-44.021-9.117-103.873-6.862-148.141"/><path fill="#b72f18" d="M541.433 945.184c-4.279-40.313-11.098-78.503-4.183-118.999.452-2.65.162-4.981 2.296-6.822l.889.614c.839 6.372 3.227 11.503 3.919 15.988 2.67 17.306 10.547 40.319 10.933 57.299-2.113 4.165 3.636 40.24 5.186 47.023-5.902 1.489-13.308 3.173-19.04 4.897"/><path fill="#02509a" d="M663.011 757.122a969 969 0 0 0 76.319-28.81c9.537-4.034 29.115-13.526 37.353-16.333 4.491 11.6 8.506 25.107 12.834 37.126a4070 4070 0 0 0 38.221 102.658c-37.105 16.197-75.561 29.469-113.783 42.754-6.965 2.422-14.185 4.89-21.255 6.966-3.127-17.568-4.811-36.866-6.463-54.623l-2.167.516c.007 4.237.274 15.008-.091 18.743.222 8.095 1.168 15.622.737 23.737-1.508-5.504-2.839-13.697-4.027-19.546a864 864 0 0 1-10.223-59.029c-2.598-17.666-5.817-36.454-7.455-54.159"/><path fill="#04407f" d="M683.979 866.119c-1.091-1.834-1.064-30.84-.372-33.947.992 2.024 1.246 5.686 1.553 8.049.346 2.031.881 4.648 1.077 6.64l-2.167.515c.007 4.237.274 15.009-.091 18.743"/><path fill="#01091e" d="M685.16 840.221c.346 2.03.881 4.648 1.077 6.639l-2.167.516c-.228-2.971-.47-4.701 1.09-7.155"/><path fill="#de361e" d="M776.813 1067.41a1824 1824 0 0 0 125.345-49.48c20.498 37.66 35.943 61.33 60.723 96.08 4.811 5.89 9.649 12.39 14.264 18.45-65.195 9.14-131.278 9.88-195.462-6.17-9.681-2.41-21.797-5.06-30.721-9.14a753 753 0 0 1-18.65-35.39c11.653-2.66 32.542-10.27 44.501-14.35"/><path fill="#b72f18" d="M732.312 1081.76c11.653-2.66 32.542-10.27 44.501-14.35 3.304 6.11 8.513 10.89 13.017 15.98 36.394 41.13 93.05 39.24 142.983 34.29 9.916-.98 20.054-3.38 30.068-3.67 4.811 5.89 9.649 12.39 14.264 18.45-65.195 9.14-131.278 9.88-195.462-6.17-9.681-2.41-21.797-5.06-30.721-9.14a753 753 0 0 1-18.65-35.39"/><path fill="#ae7238" d="M492.214 591.282c7.35-9.169 14.16-14.3 26.34-15.731 11.815-1.465 21.2 1.987 31.502 7.27 16.772 8.601 27.739 22.512 41.238 34.921 12.485 11.476 22.382 16.634 29.38 33.132 14.313 26.022 21.485 75.434 27.134 104.616-11.209-6.013-54.067-33.889-59.293-42.8 1.911-2.089 3.217-.078 5.916-2.722l-.242-1.397c-3.42-2.376-10.472-2.435-14.649-2.331-20.819.529-39.604-10.98-60.312-7.37a89.4 89.4 0 0 0-18.217 5.294c-6.168 2.514-17.876 10.413-21.345 2.207q.007-1.392.103-2.775c1.745-22.738 27.664-22.379 43.095-35.631 6.546-6.979 7.764-9.362 11.923-18.059 5.036 21.147 9.812 34.399 31.948 41.528-3.045-4.596-7.78-8.996-11.769-14.003-7.592-9.525-10.187-21.798-10.81-33.782-.093-1.783.44-.302-.561-2.606-6.093-5.731-13.378-13.064-19.928-18.231-.676-.533-6.421-2.606-8.515-3.805l.88-2.987c-1.189-1.787-.972-1.242-3.625-2.047-7.485 5.258-19.906 16.297-29.23 11.435-1.292-1.596-1.994-3.181-2.933-5.001 1.451-24.455 26.476-30.45 46.857-26.833 7.925 1.407 16.598 9.511 24.056 8.023-4.894-14.049-28.013-17.883-40.899-17.125-6.798 1.963-11.621 3.9-18.044 6.81"/><path fill="#dc9a55" d="M492.215 591.282c7.349-9.169 14.16-14.3 26.339-15.731 11.815-1.465 21.2 1.987 31.502 7.27 16.772 8.601 27.739 22.512 41.238 34.921 12.485 11.476 22.382 16.634 29.38 33.132-2.291.992-2.943-.108-5.228-2.329-7.876-7.656-16.929-14.596-24.844-22.053-18.011-16.969-36.973-38.424-62.007-44.414-5.087-1.218-14.004-.423-18.336 2.394-6.799 1.963-11.621 3.9-18.044 6.81"/><path fill="#bb7c3f" d="M479.666 706.371q.007-1.392.103-2.775c1.745-22.738 27.664-22.379 43.095-35.631 5.661 6.071 12.126 12.005 16.569 18.899-8.458 1.548-18.501 2.507-26.644 4.701-8.655 2.33-26.114 9.179-33.123 14.806"/><path fill="#dc9a55" d="M480.244 620.407c1.451-24.455 26.476-30.45 46.857-26.833 7.926 1.408 16.598 9.511 24.056 8.023 2.563.192 1.648-.354 3.104 1.175l-.137 1.45c-7.046 4.63-16.257-5.319-21.948-6.328-21.778-3.86-41.922.917-49.458 21.977-1.438.532-.929.443-2.474.536"/><path fill="#99612f" d="M513.478 612.56c13.319 2.696 26.6 15.536 30.117 28.483-6.092-5.731-13.378-13.064-19.928-18.231-.675-.533-6.421-2.606-8.515-3.805l.881-2.987c-1.19-1.787-.972-1.242-3.626-2.047z"/><path fill="#99612e" d="M483.177 625.408c10.057-2.554 9.882-13.09 30.3-12.848l-1.07 1.413c-7.485 5.258-19.906 16.297-29.23 11.435"/><path fill="#bb7c3f" d="M335.064 637.801c9.534-19.022 16.815-20.79 31.952-33.569 26.118-22.049 77.449-63.355 100.046-13.732-10.669-7.541-16.588-14.161-31.484-14.473-13.353-.28-22.312 3.471-31.765 12.523.932.848 1.307 1.602 2.787 1.234 9.67-2.404 18.874-6.221 29.093-5.265 16.139 1.509 31.55 11.895 30.901 29.618-5.057 20.044-20.513-.863-28.143-6.006-1.788-1.206-4.127-1.645-6.245-2.055l-4.518 2.711 5.612 3.153c-4.685 1.985-7.596 2.982-11.648 6.011l-.934.687c-3.224 2.402-13.088 11.593-15.223 14.783 1.191 11.732-9.195 33.258-18.772 40.733-2.625 2.043-5.112 3.473-7.025 6.299l.363.869c5.521.352 13.466-4.25 17.67-7.821 18.036-15.342 9.585-33.013 27.683-47.724-2.97 15.725-1.927 28.837 10.699 40.419 11.714 7.52 20.308 9.825 26.782 22.77l.463.908c1.552 4.994 2.769 11.79.736 16.778-.684.548-1.543 1.573-2.528.829-9.433-7.208-18.723-12.502-30.319-15.185-17.455-4.035-33.057 1.645-50.133 3.479-7.996.862-17.006-.809-25.183.151l-.715 1.423c4.671 3.342 6.513 3.499 12.006 4.302-10.648 13.527-36.559 34.052-50.921 43.237.364-26.688 3.175-62.966 11.101-88.315 2.298-7.063 4.111-12.264 7.662-18.772"/><path fill="#99612e" d="M402.71 632.928c2.435-2.577 5.424-4.964 8.006-7.673 6.157-6.463 9.585-11.417 16.972-16.468l5.612 3.153c-4.685 1.985-7.596 2.982-11.648 6.011l-.934.687c-3.224 2.402-13.088 11.593-15.223 14.784 1.191 11.731-9.195 33.257-18.772 40.732-2.625 2.043-5.112 3.473-7.025 6.3l.363.868c5.521.353 13.466-4.25 17.67-7.821 18.036-15.341 9.585-33.013 27.683-47.723-2.97 15.724-1.927 28.837 10.699 40.418 11.714 7.52 20.308 9.825 26.782 22.771l.463.907c1.552 4.994 2.769 11.79.736 16.778-.684.548-1.543 1.573-2.528.829-9.433-7.207-18.723-12.502-30.319-15.185-17.455-4.034-33.057 1.645-50.133 3.48-7.996.861-17.006-.81-25.183.15l-.715 1.423c4.671 3.342 6.513 3.499 12.006 4.302-10.648 13.527-36.559 34.052-50.921 43.237.364-26.688 3.175-62.965 11.101-88.315 2.522 8.063 2.61 24.521 9.4 29.913 9.214 1.41 28.654-3.832 37.013-8.826 21.334-12.75 23.199-22.412 28.895-44.732"/><path fill="#bb7c3f" d="M411.521 679.813c6.983-13.017 10.613-12.815 24.592-13.618 11.714 7.521 20.308 9.825 26.782 22.771l.462.908c-3.578 2.154-4.27 2.52-7.133 5.673-22.736-11.386-18.787-10.766-44.703-15.734"/><path fill="#dc9a55" d="M335.064 637.801c9.534-19.022 16.815-20.79 31.952-33.569 26.118-22.049 77.449-63.355 100.046-13.732-10.669-7.541-16.588-14.161-31.484-14.473-13.354-.28-22.312 3.471-31.765 12.523-7.547.704-52.447 40.149-59.111 47.183-1.614 1.704-6.962 8.518-8.525 8.323-.821-2.718-.856-3.384-1.113-6.255"/><path fill="#99612e" d="M432.206 606.076c9.406-3.099 17.318 4.53 24.682 9.73 3.371-.482 6.387-.878 9.706-1.668-5.057 20.043-20.513-.864-28.143-6.007-1.789-1.206-4.128-1.645-6.245-2.055"/><path fill="#02509a" d="M575.873 955.492c23.904-6.261 52.33-14.598 75.977-22.268 12.362 38.791 29.485 77.696 45.1 115.326 3.251 7.84 6.521 15.34 10.34 22.91-16.268 5-34.154 9.61-49.769 14.54-1.215.31-4.485 1.16-5.494.92-9.24-2.21-30.623-10.86-36.207-18-20.733-26.52-32.468-65.41-40.336-97.773-1.222-5.027-3.489-8.735-3.214-13.69 1.316-1.893.728-1.286 3.603-1.965"/><path fill="#04407f" d="M657.521 1086c-1.215.31-4.485 1.16-5.494.92-9.24-2.21-30.623-10.86-36.207-18-20.733-26.52-32.468-65.41-40.336-97.774-1.222-5.027-3.489-8.735-3.214-13.69 1.316-1.893.728-1.286 3.603-1.965 12.555 33.719 22.073 67.179 42.901 97.069 8.991 12.9 12.635 20.66 27.74 26.7 3.398 1.36 6.796 6.29 11.007 6.74"/><path fill="#034c94" d="M952.149 990.81c20.061 26.43 41.394 62.8 71.531 79.46.43-2 .51-3.36.68-5.4l-.3-.73c1.93-1.09 11.03-.94 14.23-1.67 3.7-.85 4.37-1.1 7.88-2.6 11.22 4.35 27.22 10.32 32.22 22.43 7.13 31.87-57.55 42.63-79.787 47.05a558 558 0 0 1-14.786-18.07 860 860 0 0 1-48.614-73.44c-4.361-7.36-12.501-21-15.589-28.76 12.331-6.34 20.994-10.815 32.535-18.27"/><path fill="#04407f" d="M1078.39 1082.3c7.13 31.87-57.55 42.63-79.787 47.05a558 558 0 0 1-14.786-18.07c7.899-3.27 19.013-4.02 27.503-5.67 19.03-3.7 37.69-10.1 55.33-18.06 3.96-1.79 9.68-2.33 11.74-5.25"/><path fill="#01091e" d="M1024.36 1064.87c3.68 3.41 6.22 6.07 8.98 10.34-3.36-1.56-6.54-2.93-9.66-4.94.43-2 .51-3.36.68-5.4"/><path fill="#fac42f" d="M617.334 621.672a257.2 257.2 0 0 1 70.934 22.863 238.4 238.4 0 0 1 28.383 16.007c3.421 2.285 13.481 9.91 16.412 11.255l.724-.131c1.92.679 4.557 4.714 6.731 6.751l1.266-.157c6.313-7.357-15.106-33.667-21.137-39.873 9.452-2.557 17.253-4.292 25.263-10.093 7.148 18.249 18.553 47.727 23.847 66.039-32.196 14.284-64.223 27.974-97.418 39.777-4.152 1.475-8.571 2.885-12.618 4.53-6.098-34.991-14.563-79.528-35.776-108.665z"/><path fill="#fcdf57" d="M617.334 621.672a257.2 257.2 0 0 1 70.934 22.863l-1.117 2.133c-8.989 4.224-46.026-18.461-63.206-16.693z"/><path fill="#fac42f" d="M585.895 593.767c10.083-4.019 22.913-7.768 33.313-11.299 31.336-10.636 64.986-20.8 94.76-35.461 7.658 16.678 17.045 41.465 23.371 58.672l3.466 10.217c-13.722 5.968-26.634 8.167-41.355 10.083 15.765 3.325 28.762 1.673 43.372-5.143l3.088 7.458c-8.01 5.801-15.811 7.536-25.264 10.093 6.032 6.206 27.451 32.516 21.138 39.873l-1.266.157c-2.174-2.037-4.811-6.072-6.731-6.751l-.724.131c1.096-3.917-6.385-11.111-8.976-13.925-24.872-26.995-76.229-48.096-112.242-49.028-3.493.091-6.778.636-10.232 1.128-5.088-5.593-10.387-10.846-15.718-16.205"/><path fill="#ec9b2a" d="M611.845 608.844c1.664-1.21 4.252-.235 7.397-.964l1.552-2.556c6.068-2.298 50.605 5.468 59.973 8.246 30.59 9.071 28.031 9.22 56.572-7.891l3.466 10.217c-13.722 5.968-26.634 8.167-41.355 10.083 15.765 3.325 28.762 1.673 43.372-5.143l3.088 7.458c-8.01 5.801-15.811 7.536-25.264 10.093 6.032 6.206 27.451 32.516 21.138 39.873l-1.266.157c-2.174-2.037-4.811-6.072-6.731-6.751l-.724.131c1.096-3.917-6.385-11.111-8.976-13.925-24.872-26.995-76.229-48.096-112.242-49.028"/><path fill="#04407f" d="M831.087 543.791c11.666 23.198 24.245 80.342 26.263 106.991-9.714 4.863-19.017 10.673-29.089 15.746-13.187 6.959-27.562 13.696-41.016 20.284-7.97-19.096-16.803-46.076-24.016-65.717l-2.853-8.038c35.036-20.381 50.918-33.078 70.711-69.266"/><path fill="#02509a" d="M763.229 621.096c2.97-1.444 6.6-2.327 9.824-3.13 12.475-3.11 22.542-9.648 35.48-10.629 3.094 3.632 5.621 7.124 7.638 11.488 4.517 9.779 12.488 37.643 12.09 47.704-13.187 6.959-27.562 13.696-41.016 20.283-7.97-19.095-16.803-46.076-24.016-65.716M543.222 963.737l20.96-5.249c6.996 30.945 13.145 61.552 26.483 90.522 2.713 5.9 5.641 11.32 8.461 17.1-12.944-3.5-26.288-7.11-39.624-8.85-17.964-3.2-34.939-2.64-51.074-13.87-19.388-13.5-22.367-43.662-26.207-65.78 20.741-3.793 40.548-8.8 61.001-13.873"/><path fill="#04407f" d="m543.222 963.737 20.96-5.249c6.996 30.945 13.145 61.552 26.483 90.522 2.713 5.9 5.641 11.32 8.461 17.1-12.944-3.5-26.288-7.11-39.624-8.85.637-.35 2.049-1.08 2.385-1.64 2.019-3.38-2.293-12.99-3.093-16.25a907 907 0 0 1-9.617-44.754c-1.682-8.552-4.273-20.238-4.776-28.783l-.064-1.169z"/><path fill="#ddd7c6" d="M832.615 685.01c9.191-4.589 18.128-10.628 26.602-14.747.489 23.965-.594 48.727-5.112 72.334-4.569 23.906-9.498 48.002-16.059 71.432-.431 1.502-.463 3.695-.248 5.243l.895-.157c7.833-16.34 12.331-27.217 17.828-44.68 2.585-8.199 5.875-21.001 8.734-28.561 4.707 25.01 11.555 55.869 19.121 80.259a1502 1502 0 0 0-26.445 12.064c-4.237 1.652-8.976 3.943-13.161 5.85a590 590 0 0 1-8.917-23.777 312 312 0 0 1-5.797-15.935c-11.581-32.152-26.386-68.045-36.42-100.451 13.18-6.418 25.799-12.143 38.979-18.874"/><path fill="#fcf8e9" d="M793.636 703.883c13.18-6.417 25.799-12.143 38.979-18.873 4.237 23.051 7.292 47.885 7.187 71.563-.065 15.244-5.842 31.636-8.127 46.58-.065.424-1.227.959-1.619 1.181-11.581-32.152-26.386-68.044-36.42-100.451M835.853 820.27c8.512.027 8.016-.698 11.404-8.499 4.25 8.728 6.874 17.535 10.673 26.426-4.236 1.652-8.976 3.943-13.16 5.85a591 591 0 0 1-8.917-23.777"/><path fill="#024a91" d="M816.543 452.631c5.301 3.179 12.978 19.207 13.892 25.167 7.285 47.37-32.184 107.924-72.194 130.503a800 800 0 0 0-3.218-9.397c-1.599-5.244-5.027-13.49-7.07-18.806a806 806 0 0 0-16.764-41.357 547 547 0 0 0 22.169-13.246c27.216-17.487 55.919-39.714 63.185-72.864"/><path fill="#ddd7c6" d="M352.341 732.902c1.241.131 6.293 1.515 7.945 1.848 8.024 1.638 15.868 3.401 23.987 4.615-10.486 37.891-20.69 91.064-21.388 130.345-4.653-.483-9.459-.836-14.131-1.234-10.425-1.077-18.99-1.789-29.478-2.239-1.149-10.087-1.445-27.347-1.791-37.995-.706-21.72-1.913-46.371-1.247-67.934 15.495-9.44 22.601-14.865 36.103-27.406"/><path fill="#02509a" d="M521.044 711.821c15.644-2.552 35.163 3.833 52.869 5.51 8.621 8.866 8.452 12.463 11.429 24.371 1.22 5.464 3.877 13.846 5.458 19.467a1653 1653 0 0 1-118.115 31.251 497 497 0 0 1 4.108-57.194c.407-4.492 1.021-9.767 1.217-14.213 13.651 2.063 19.822-3.669 32.252-8.14-2.376 15.491-3.961 22.992-2.31 38.673.624 3.963 1.382 9.969 2.598 13.592.465-2.017.73-5.268.948-7.442 1.59-15.89 5.177-30.539 9.546-45.875"/><path fill="#04407f" d="M521.044 711.821c15.644-2.552 35.163 3.833 52.869 5.51 8.621 8.866 8.452 12.463 11.43 24.371-18.683.209-45.76.763-63.966 5.816-3.375 5.092-6.905 16.347-10.272 17.823l-.555-.203c.465-2.017.73-5.268.948-7.442 1.591-15.89 5.177-30.539 9.546-45.875M478.01 721.014c13.651 2.063 19.822-3.669 32.252-8.141-2.376 15.492-3.961 22.993-2.31 38.674-14.642-.092-22.93-16.954-31.159-16.321.407-4.491 1.021-9.766 1.217-14.212"/><path fill="#ec9b2a" d="M889.774 844.171c12.39 43.589 30.551 91.573 52.818 130.925a329 329 0 0 1-25.035 15.042c-1.978.868-4.902 2.663-6.867 3.786-8.415-14.669-18.579-36.428-25.636-51.978-11.476-25.285-24.375-53.937-33.782-79.953 3.851-2.05 8.408-3.917 12.449-5.679 8.173-3.584 18.043-8.128 26.053-12.143"/><path fill="#fac42f" d="M851.272 861.993c3.851-2.05 8.408-3.917 12.449-5.68 4.015 8.624 7.912 21.949 10.771 31.082a874 874 0 0 0 13.67 40.43c7.043 18.795 15.086 36.33 24.858 53.891 1.482 2.657 3.29 5.706 4.537 8.422-1.978.868-4.902 2.663-6.867 3.786-8.415-14.669-18.579-36.428-25.636-51.979-11.476-25.284-24.375-53.936-33.782-79.952M267.919 726.465c11.03.738 22.297 2.99 34.044 3.734a1327 1327 0 0 0-.563 91.971c.336 11.803.732 23.6 1.189 35.403.237 6.594.785 16.856.12 23.26a596 596 0 0 1-35.556-4.341c.209-34.28-1.289-68.488-.797-102.769.226-15.739.944-31.525 1.563-47.258"/><path fill="#de361e" d="M267.878 895.059a420 420 0 0 0 36.167 3.884c.064 14.199 2.196 119.917-1.792 126.707l-1.812.21a216.6 216.6 0 0 1-36.212-6.13c6.339-44.915 5.487-79.744 3.649-124.671"/><path fill="#bb7c3f" d="M681.302 1111.54c30.623 8 57.081 15.67 86.568 27.06-9.955 14.66-18.631 27.41-37.34 31.48-10.34 2.26-9.315-4.04-7.781-11.24 1.214-5.28 7.206-16.48 5.131-20.25l-1.672-.46c-10.784 2.36-14.962 22.82-16.515 32.12a36.65 36.65 0 0 1-15.348 3.05c-34.526-.77-4.602-34.94-9.589-39.73-6.666.31-11.757 9.4-14.597 14.54-2.239 5.35-2.755 9.26-3.669 14.99-9.759-2.57-14.72-4.61-14.124-15.97 2.067-10.46 7.152-18.25 15.247-25 .692-.83 2.951-2.47 3.93-3.22a172 172 0 0 1 9.759-7.37"/><path fill="#99612e" d="M681.302 1111.54c30.623 8 57.081 15.67 86.568 27.06-9.955 14.66-18.631 27.41-37.34 31.48-10.341 2.26-9.316-4.04-7.782-11.24l.732 1.82c5.607 2.45 24.336-7.94 23.514-12.91-2.455-14.84-43.993-21.41-53.478-22.18-3.936 2.31-4.439 2.52-7.814 5.72-4.537-3.76-10.014-5.77-13.363-9.05-.156-1.15-.444-2.22-.796-3.33a172 172 0 0 1 9.759-7.37M652.366 1147.13l1.532 1.46c1.233-.53.796-.17 1.442-.88l1.508-.87c5.882 2.22 7.527 2.08 13.311 1.27-2.239 5.35-2.755 9.26-3.669 14.99-9.759-2.57-14.72-4.61-14.124-15.97"/><path fill="#dc9a55" d="M652.366 1147.13c2.067-10.46 7.152-18.25 15.247-25l1.639 1.19c-.138 5.36-13.546 18.54-13.912 24.39-.646.71-.209.35-1.442.88z"/><path fill="#de361e" d="M317.23 598.374c-1.671 1.765-3.549 4.283-6.14 3.407 1.37-8.678 35.101-32.972 43.239-39.578a235 235 0 0 0 16.003-14.245c21.42-21.116 38.237-46.519 57.955-65.868-1.02 10.477-1.285 12.897-5.963 22.314-2.618 14.454.256 25.465 4.441 39.386l3.421 11.474c-25.264 3.848-44.876 15.672-62.598 33.954-16.565-10.484-35.914-.539-50.358 9.156"/><path fill="#b72f18" d="m426.765 543.79 3.421 11.474c-25.264 3.847-44.876 15.671-62.598 33.954-16.565-10.484-35.914-.539-50.358 9.155 2.124-4.79 7.187-5.701 10.947-8.505 12.454-9.286 26.007-14.824 39.738-21.63 3.601-1.784 10.189-9.092 13.28-12.286 7.132-1.965 13.109-6.138 19.294-7.876 7.008-1.969 17.942-2.314 25.245-4.035z"/><path fill="#de361e" d="M381.195 555.952c5.656-8.383 15.205-18.718 21.79-26.671 5.096-6.154 14.289-19.702 19.339-24.878-2.618 14.455.256 25.466 4.441 39.387l-1.031.251c-7.303 1.721-18.237 2.066-25.245 4.035-6.186 1.738-12.162 5.911-19.294 7.876"/><path fill="#02509a" d="M636.441 765.856c3.987 2.579 9.943 5.497 14.263 7.769 7.104 42.154 14.859 91.305 29.867 131.298-3.845 1.351-12.808 4.863-16.914 4.974-.64.02-.712-.646-1.044-1.397-3.069-7.651-5.765-15.805-8.624-23.58-13.628-37.003-26.963-74.129-39.417-111.543 7.373-2.761 14.38-5.085 21.869-7.521M347.012 598.751c2.105-.064 1.889-.415 3.246.588-.607 2.007-8.362 7.904-10.565 9.785-25.327 21.63-34.691 70.664-36.395 102.999-10.136-1.619-19.213-2.945-29.477-3.317-5.496-.483-4.402-2.813-3.815-7.612 4.176-34.234 12.738-61.254 32.971-89.496 7.12 6.008 7.477 4.763 14.991-.251 9.391-6.266 17.982-10.451 29.044-12.696"/><path fill="#04407f" d="M319.8 883.915c14.606.757 28.621 2.337 43.418 2.951-7.037 34.868-26.858 56.718-31.33 96.795-1.361 7.181-1.295 21.689-.883 28.979l-11.737-.25c-.045-5.33.035-10.98.202-16.331 1.165-37.31-.414-74.893.33-112.144"/><path fill="#fcf8e9" d="M261.395 1037.09c15.348 3.46 23.984 5.34 39.709 6.17-1.79 20.5-5.425 49.7-26.384 58.94-13.851 3.34-24.317 2.24-38.464 1.64 13.55-22.99 20.033-40.64 25.139-66.75"/><path fill="#bb7c3f" d="M970.833 990.496c21.313 4.126 50.137 3.042 66.907 8.102 6.11 1.402 10.06 2.512 13.04 8.512l.46 1.33c2.56 11.68-14.2 23.54-22.58 29.11-6.8-3.18-14.95-7.52-20.98-12.02-9.828-6.34-18.008-14.51-26.187-22.76-3.897-4.231-7.083-7.717-10.66-12.274"/><path fill="#dc9a55" d="M970.833 990.496c21.313 4.126 50.137 3.042 66.907 8.102 6.11 1.402 10.06 2.512 13.04 8.512-.69.59-1.04.71-1.83 1.15-2.48-.3-2.9-.9-4.97-2.5-11.03-5.08-44.783-4.62-57.415-4.77-1.09-.02-4.021 1.28-5.072 1.78-3.897-4.231-7.083-7.717-10.66-12.274"/><path fill="#ec9b2a" d="M1037.74 998.598c6.11 1.402 10.06 2.512 13.04 8.512-.69.59-1.04.71-1.83 1.15-2.48-.3-2.9-.9-4.97-2.5 1.1-1.48.78-.66.87-2.59-1.37-1.76-4.74-2.56-7.11-4.572"/><path fill="#99612e" d="M1051.24 1008.44c2.56 11.68-14.2 23.54-22.58 29.11-6.8-3.18-14.95-7.52-20.98-12.02 10.43-2.96 39.71-2.05 43.56-17.09"/><path fill="#ddd7c6" d="M317.989 1028.97c5.167.56 11.505.49 16.787.58 5.946 18.73 12.468 29.25 25.202 43.75-8.071 2.06-13.198 3.79-20.721 7.33-5.893 2.56-10.599 5.96-15.802 9.61-5.482-.03-11.243-.38-16.741-.63 7.848-23.06 9.108-36.42 11.275-60.64"/><path fill="#02509a" d="M234.595 1028.45c3.074.87 7.376 2.89 10.419 4.21-6.398 28.98-11.655 43.44-26.027 69.21-5.325-1.33-9.95-2.74-15.16-4.38a92 92 0 0 1-3.565-1.42c-13.888-5.89-12.189-13.7-2.113-22.67 15.976-14.22 26.561-25.55 36.446-44.95"/><path fill="#fcf8e9" d="m439.515 647.592-1.348-2.311c-3.462-5.956-4.535-14.315-1.919-20.808 1.755-1.668.751-1.289 3.056-1.311 2.35 1.177 3.114 2.864 4.602 5.097 10.406 8.195 15.913 10.049 27.126 1.547 3.416 5.401 4.062 6.333 9.794 9.197l7.942-.78c-8.204 16.078-12.029 26.771-15.43 44.574-7.373-11.914-13.396-17.235-25.587-24.253-4.441-2.559-8.613-5.268-8.236-10.952"/><path fill="#99612e" d="m439.515 647.592-1.348-2.311c-3.462-5.956-4.535-14.315-1.919-20.808 1.755-1.668.751-1.289 3.056-1.311 2.35 1.177 3.114 2.864 4.602 5.097-1.379 4.989-3.018 13.723-4.391 19.333"/><path fill="#04407f" d="M513.713 628.425c9.469 2.953 13.637 10.856 9.769 19.984-5.281 12.466-13.941 15.319-25.298 20.117l-8.818 5.164c2.097-10.452 9.12-27.775 15.685-36.31 1.788-2.326 6.406-6.772 8.662-8.955"/><path fill="#fcf8e9" d="M713.883 1087.63c.34.11.679.22 1.025.33 3.33 6.58 7.912 15.89 11.431 22-7.057-2.74-15.393-4.79-22.77-6.77-7.181-1.92-13.572-3.66-20.635-6 7.99-3.09 22.143-6.79 30.949-9.56"/><path fill="#04407f" d="M1024.06 1064.14c-3.84-2.13-23.94-23.78-26.378-28.05 1.038.05 9.548 6.1 12.218 7.51 11.69 6.24 23.91 11.54 36.27 16.27-3.51 1.5-4.18 1.75-7.88 2.6-3.2.73-12.3.58-14.23 1.67M392.942 705.979l.519.719c-.361 3.205-4.219 13.716-5.447 17.169-4.468-1.208-10.433-2.011-15.1-2.774-2.521-.856-2.139-.275-3.049-2.037 1.357-4.015 6.219-8.716 9.251-12.078 4.015-.013 9.707-.653 13.826-.999"/><path fill="#dc9a55" d="M433.225 204.323c2.007-.132 2.099-.073 3.987.261.018-1.739-15.012 29.547-16.067 32.068-.781.371-.278.254-1.539-.178-2.808-5.062-1.415-16.212 1.174-21.176 3.112-5.967 6.224-8.796 12.445-10.975"/><path fill="#fac42f" d="M604.074 741.376c2.196.94 13.291 9.192 14.558 11.372l-1.205 1.306c-2.879.934-6.159 1.756-9.103 2.572-1-4.531-2.95-10.641-4.25-15.25"/><path fill="#d3a72d" d="M243.472 1007.29c4.087-9.136 5.053-18.152 8.779-26.476-.375 9.741-1.451 16.811-3.165 26.336z"/><path fill="#fac42f" d="m243.472 1007.29 5.614-.14c-.401 4.5.326 5.78-3.831 8-2.294-.52-1.273.04-2.907-2.15-.669-2.38.067-3.26 1.124-5.71"/><path fill="#de361e" d="m302.016 363.77.821-.081c24.242-2.191 36.52 16.141 37.347 37.886 1.031 27.129-23.962 67.522-41.528 86.971-15.312-3.861-30.672-11.88-44.27-19.776a157 157 0 0 1-13.766-9.087c-14.213-10.5-25.547-23.177-28.612-41.428-4.881-29.052 23.6-49.127 48.783-33.404 4.29 2.679 7.552 6.701 11.512 9.774l.933.714c5.221-17.043 10.913-26.459 28.78-31.569"/></svg>